<svg width="130" height="47" viewBox="0 0 130 47" fill="none" xmlns="http://www.w3.org/2000/svg">
<path fill-rule="evenodd" clip-rule="evenodd" d="M56.3475 9.35919C56.0158 10.5411 55.6563 11.92 55.2693 13.4965C54.9831 14.6588 53.8231 19.6138 53.7776 19.8118C53.4533 21.2455 53.1386 22.6813 52.8336 24.1193C52.6408 25.0241 52.4518 25.9201 52.2645 26.8084C52.0572 27.793 51.8513 28.7779 51.6467 29.7631C51.2767 31.5393 50.915 33.3172 50.5615 35.0968C50.2563 36.6344 49.9539 38.1726 49.6545 39.7113C49.5033 40.3151 49.4355 40.5808 49.2234 40.8504C49.0105 41.119 48.5201 41.4406 47.9824 41.4722C47.8474 41.4804 47.6854 41.4759 47.4958 41.4608C47.3061 41.445 47.0878 41.4036 46.8402 41.3374C46.1815 41.1606 45.4241 41.159 44.7933 40.9805C44.1602 40.8029 43.4019 40.7856 42.8729 40.5063C42.3423 40.2278 41.7669 40.0584 41.4306 39.645C41.0951 39.2341 41.3374 38.1516 41.2987 37.5319C41.2818 37.2633 41.3412 36.4757 41.3797 36.2296C41.4754 35.1705 41.6358 33.8432 41.8603 32.2496C42.0846 30.6552 42.3561 28.9305 42.6716 27.0733C43.0013 25.1384 43.3466 23.2061 43.7074 21.2767C43.8794 20.3507 44.6221 16.4378 44.8195 15.4147C45.1874 13.5153 45.5485 11.7297 45.9031 10.0608C46.2579 8.39182 46.5881 6.96601 46.8926 5.78629C47.1171 5.07041 47.3824 4.56148 47.6877 4.25963C47.9932 3.95697 48.4144 3.79066 48.9526 3.75907C49.3021 3.73801 49.7302 3.78769 50.2376 3.90513C50.7436 4.02393 52.9817 4.27691 53.4399 4.24991C54.0237 4.21454 55.914 4.58875 55.914 4.58875C56.4748 4.9342 56.582 5.28573 56.8319 5.60863C57.0809 5.93168 56.8967 6.64755 56.926 7.10519C56.9507 7.5095 56.4763 8.83892 56.3475 9.35919ZM77.4569 30.6726C77.4569 30.6726 77.7399 33.0083 77.6664 34.4576C77.6203 35.3492 77.1537 37.3122 76.8677 37.5411C76.5808 37.7724 76.0495 38.0159 75.2726 38.2752C75.2726 38.2752 65.0501 41.0317 64.7117 41.0909C64.3734 41.1511 62.7274 41.6539 61.8841 41.4098C59.0112 40.582 57.8233 37.6035 57.577 37.1653C57.3316 36.7271 57.1887 36.2036 57.1505 35.5926C57.1386 35.4078 57.141 35.2138 57.1551 35.0129C57.1699 34.8121 57.2097 34.5778 57.2747 34.3069L57.2396 34.3891C57.3864 33.2357 58.4164 27.2893 58.7619 25.5912C59.1206 23.8279 59.4962 22.0681 59.8888 20.312C60.0678 19.5047 60.2493 18.7068 60.4329 17.9156C60.4688 17.7611 61.988 11.5597 62.4227 9.97585C62.8571 8.39263 63.2667 6.96385 63.6519 5.68869C64.1224 4.46293 64.8494 3.8209 65.8301 3.76231C66.4835 3.72357 67.2493 3.82549 68.1264 4.06591C69.0031 4.30782 69.837 4.63114 70.6287 5.03666C71.4189 5.443 72.0972 5.88807 72.6607 6.37419C73.2242 6.85963 73.5211 7.34197 73.5508 7.8189C73.5646 8.02711 73.5502 8.23622 73.5079 8.44056C73.4657 8.64291 73.3859 8.894 73.2679 9.1945L73.3062 9.15184C72.8498 10.6172 72.3637 12.2369 71.8456 14.0118C71.3265 15.7868 70.814 17.6477 70.3075 19.5946C69.7914 21.5726 69.2858 23.5532 68.7905 25.5364C68.2996 27.4992 67.8205 29.4649 67.3532 31.4334C68.3787 31.2128 69.3837 30.9936 70.37 30.7753C71.3541 30.5577 73.2273 30.0023 74.427 29.9308C75.1076 29.8912 77.0982 29.3496 77.4569 30.6726ZM96.7336 10.6848C96.4973 11.4132 96.2682 12.1438 96.0465 12.8768C95.9794 13.0981 95.1589 15.7773 94.8799 16.6191C96.1181 16.4182 97.3643 16.2703 98.6152 16.1759L98.9162 16.1594C99.7498 16.1126 100.418 16.1945 100.923 16.4024C101.427 16.611 101.923 16.8002 102.283 17.4365C102.283 17.4365 102.884 18.7701 103.063 19.2983C103.242 19.8274 103.394 20.8919 103.409 21.1282C103.476 22.2084 102.433 22.5564 101.758 22.8052C101.342 22.958 95.9181 23.8892 95.0731 24.077C94.0603 24.3017 93.0525 24.5482 92.0503 24.8161C91.8556 25.3526 91.6159 27.1168 91.4269 27.7441C91.2379 28.3723 91.0539 28.9698 91.0277 29.4443C92.1075 29.2014 96.1062 28.2753 97.3857 28.0905C98.3746 27.9482 99.5133 27.4574 100.34 27.9379C101.816 28.7962 102.205 30.138 102.461 30.854C102.461 30.854 103.359 32.7844 103.07 34.0785C102.938 34.67 102.742 35.0173 102.443 35.2705C102.142 35.5231 101.581 35.7519 100.758 35.9545C99.2458 36.3449 93.0638 37.9244 92.6614 38.0272C91.9578 38.2083 90.3813 38.4757 90.3813 38.4757C89.5888 38.703 88.3845 38.9317 87.8388 38.9622C87.2065 38.9973 86.6486 38.9496 86.1644 38.8184C85.6792 38.6874 81.2356 36.3054 81.1014 34.8549C81.0522 34.3273 80.4151 33.864 80.3692 33.1829C80.343 32.7874 80.3598 32.3903 80.4191 31.9984C80.4191 31.9984 83.3207 18.6077 85.0035 10.8383C85.0934 10.4263 86.1415 5.58568 86.1733 5.43827C86.305 4.83255 86.6846 4.55095 86.6846 4.55095C87.6188 3.7098 88.3796 3.3067 89.727 2.95666C90.6833 2.70773 98.3968 1.83823 99.1617 1.70418C100.701 1.43513 105.04 0.821313 106.108 1.7332C106.566 2.12428 107.049 2.53561 107.352 3.20087L107.35 3.16145C107.678 3.74773 107.912 4.23425 108.053 4.61939C108.194 5.00615 107.892 5.47782 108.007 5.91737C108.007 5.91737 108.181 6.5648 108.205 6.93064C108.253 7.63693 108.114 8.14424 107.788 8.45122C107.462 8.75901 106.828 8.99066 105.887 9.14779C104.402 9.36162 103.305 9.53968 101.736 9.79671C100.167 10.0546 98.4998 10.3502 96.7336 10.6848ZM41.7827 8.58216C42.3857 9.41414 42.615 10.2377 42.4459 10.9651C42.1224 12.3549 41.7023 14.1938 41.2282 16.2779C40.5237 19.3801 39.8215 22.4827 39.1215 25.5858C39.0589 25.8623 38.9964 26.1381 38.9345 26.4139C38.8488 26.7913 38.4536 28.5409 38.3423 29.0336C37.4998 32.7597 36.7275 36.1648 36.2094 38.4056C35.892 39.777 35.3468 41.7917 34.783 43.455C34.2541 45.0135 31.874 44.3473 30.2694 44.0003C27.9843 43.5084 26.6013 42.4304 26.8453 40.8527C27.1025 39.191 27.0994 38.7639 27.1496 38.1252C27.2036 37.43 28.033 33.4625 28.4183 31.7207C29.1134 28.5814 30.8995 22.4282 30.5196 19.9948C29.5458 21.671 28.213 24.8905 26.9209 28.0121C25.4808 31.49 24.1201 34.7767 23.1223 36.3505C23.0428 36.4757 22.9749 36.6079 22.9069 36.7386C22.5447 37.4361 22.0945 38.2995 20.3231 38.0351C17.7422 37.6432 16.3723 36.8746 15.9838 35.4054C15.5321 33.6979 14.1753 28.016 13.9552 27.0732C13.7514 26.1978 13.5475 25.3229 13.3413 24.4481C13.3344 24.4168 13.3266 24.3855 13.3197 24.355C13.3197 24.355 10.8663 35.2106 10.4578 36.9937C10.3071 37.6509 10.1203 38.4463 9.92024 39.2956C9.47084 41.2065 8.96123 43.3717 8.66154 44.8462C8.53573 45.468 8.25156 45.8989 7.81675 46.126C7.62208 46.2283 7.40204 46.2878 7.155 46.3023C6.70007 46.3298 4.93096 45.7049 4.63897 45.5895C4.13625 45.3916 1.63884 43.6176 1.17014 43.273C0.279716 42.6191 -0.0546658 40.9986 0.00716186 40.143C0.0881587 39.0123 0.253527 37.7799 0.469789 36.2763C0.56469 35.6139 0.740724 36.0411 0.858169 35.3268C1.03191 34.2671 1.22805 33.1577 1.44202 32.0186C1.798 30.1246 2.2042 28.149 2.63808 26.1855C2.71232 25.85 2.99487 24.6025 3.06128 24.3153C4.17094 19.5219 5.41667 14.9844 6.49015 12.1096C7.87466 8.40573 8.27856 8.4172 13.1629 9.73434C13.8726 9.92523 14.5043 10.3089 15.1151 10.678C15.3291 10.8085 15.5421 10.9376 15.7561 11.0559C15.9422 11.1599 16.1043 11.2983 16.2464 11.4196C16.4047 11.5549 16.5676 11.6931 16.6828 11.7139C19.8565 12.2525 20.0929 13.9096 20.062 15.7057C20.0281 17.7387 20.4196 23.1585 20.4605 23.8071C21.6282 21.8651 23.1626 18.4003 24.6498 15.0395C26.2383 11.4526 27.7387 8.065 28.8593 6.31007C29.6971 4.99751 30.9868 4.58186 33.0401 4.96147C34.0487 5.14722 35.0889 5.25724 36.1554 5.36416C38.1778 5.56436 40.5973 6.94805 41.7827 8.58216ZM125.631 2.44409C130.111 5.76833 131.092 9.50094 128.821 14.5863C128.154 16.0805 127.78 17.1377 126.741 17.5711C125.832 17.9499 124.527 17.4976 123.358 17.0523C122.595 16.7619 120.894 16.1562 120.441 15.3357C119.746 14.0759 120.334 12.7087 120.834 11.3853C121.062 10.7811 121.549 10.1468 121.808 9.55305C122.06 8.64413 121.34 8.17745 120.489 8.46107C119.761 8.99052 118.861 9.66347 118.387 10.3546C116.884 12.5483 117.352 15.1503 118.828 17.3441C119.569 18.4443 120.387 19.5099 121.263 20.5254C121.477 20.7734 122.403 21.7867 122.652 22.0438C123.198 22.6072 123.682 23.1743 124.103 23.7437C127.433 28.2559 126.752 32.8951 120.887 36.5173C118.35 38.0842 115.974 39.7643 112.696 38.931C109.138 38.0275 106.448 35.9487 104.85 32.8884C103.7 30.6872 104.447 28.2748 105.839 26.28C106.644 25.1269 107.895 25.3067 108.826 26.3511C109.769 27.4089 110.48 28.7027 111.562 29.587C112.329 30.2129 113.753 31.026 114.56 30.6727C115.23 30.8421 115.076 28.4321 114.659 27.6405C114.105 26.5901 113.471 25.5791 112.811 24.5801C112.062 23.4489 111.28 22.3342 110.545 21.1954C109.505 19.5869 108.836 17.8757 108.514 16.1486C108.349 15.2721 108.338 12.3487 108.421 11.7725C109.009 7.68904 111.477 3.92471 115.468 1.6653C115.675 1.54732 116.467 1.14503 116.653 1.05958C119.602 -0.291044 122.474 -0.696299 124.984 1.94649C125.168 2.14089 125.411 2.28155 125.631 2.44409Z" fill="currentColor"/>
</svg>
